<?xml version="1.0" encoding="utf-8"?>
<!-- Generator: Adobe Illustrator 15.0.0, SVG Export Plug-In . SVG Version: 6.00 Build 0)  -->
<!DOCTYPE svg PUBLIC "-//W3C//DTD SVG 1.1//EN" "http://www.w3.org/Graphics/SVG/1.1/DTD/svg11.dtd">
<svg version="1.1" id="Layer_1" xmlns:sketch="http://www.bohemiancoding.com/sketch/ns"
	 xmlns="http://www.w3.org/2000/svg" xmlns:xlink="http://www.w3.org/1999/xlink" x="0px" y="0px" width="56px" height="89px"
	 viewBox="0 0 56 89" enable-background="new 0 0 56 89" xml:space="preserve">
<title>Logo</title>
<description>Created with Sketch.</description>
<g id="Startsida-Pedagog" sketch:type="MSPage">
	<g id="Startsida-pedagog---v2-2-1" transform="translate(-62.000000, -111.000000)" sketch:type="MSArtboardGroup">
		<g id="Logo" transform="translate(62.000000, 111.000000)" sketch:type="MSLayerGroup">
			<path id="Fill-1" sketch:type="MSShapeGroup" fill="#404042" d="M51.043,0.207H5.38c0,0,0.121,44.939,0.121,53.262
				c0,4.316,2.057,6.016,4.714,6.895c1.697,0.561,5.601,0.359,9.524,1.379c3.763,0.979,6.433,2.324,8.739,4.953
				c0.889-1.137,2.967-2.623,5.193-3.625c2.271-1.024,6.183-1.959,8.892-2.146c6.442-0.441,8.547-2.667,8.547-8.104
				C51.109,44.227,51.043,0.207,51.043,0.207L51.043,0.207z M46.997,58.898c-2.38,1.293-5.544,0.406-11.211,2.135
				c-3.948,1.127-6.33,3.02-7.288,4.031c-1.667-1.791-4.26-3.188-7.966-4.297c-1.957-0.584-5.888-1.082-7.656-1.127
				c-2.465-0.06-3.622-0.81-4.295-1.332c-1.51-1.17-1.881-3.045-1.868-5.106c0,0,2.285-1.603,5.341-1.603
				c3.059,0,5.991,2.336,5.991,2.336s-0.988,1.647-1.373,2.879c0.494,0.232,1.112,0.514,1.112,0.514
				c1.504-4.631,5.722-7.785,10.791-7.785c5.452,0,9.782,4.059,10.698,7.551c0,0,0.787-0.156,1.099-0.449
				c-0.155-0.904-1.438-3.037-1.438-3.037s2.363-2.133,5.744-2.133c2.104,0,3.822,0.51,5.158,1.354
				C50.055,56.52,48.838,57.9,46.997,58.898L46.997,58.898z M29.98,27.5l-3.646-3.931c0,0,0.002,2.608,0.002,3.76
				c-1.651-2.647-3.331-7.223-3.331-11.705c0-4.796,3.254-10.898,6.281-12.268c-0.541,1.525-0.689,2.783-0.689,4.106
				c0,4.518,2.228,5.856,2.228,11.734c0,2.895-1.009,4.681-1.009,4.681L29.98,27.5L29.98,27.5z M30.283,49.201
				c0,0-0.762-0.077-1.521-0.118c-0.763-0.04-1.279,0.017-1.279,0.017l-0.236-23.953c0,0,0.542,0.563,1.173,1.202
				c0.818,0.825,1.523,1.584,1.523,1.584L30.283,49.201L30.283,49.201z M27.072,49.152c0,0-0.196,0.022-0.418,0.063
				c0,0-0.076-8.954-0.076-12.981c0-4.026,0.072-11.68,0.072-11.68l0.287,0.343c0,0,0.011,9.386,0.052,12.769
				C27.032,41.05,27.072,49.152,27.072,49.152L27.072,49.152z M26.189,37.432l-2.206,12.509c0,0-0.926,0.402-1.79,0.916
				c-0.865,0.515-1.44,1.066-1.44,1.066l4.488-25.731l1.033,1.697L26.189,37.432L26.189,37.432z M26.23,49.293
				c0,0-0.501,0.086-0.964,0.227c-0.465,0.142-0.865,0.265-0.865,0.265L26.204,39.5L26.23,49.293L26.23,49.293z M24.958,25.761
				L20.244,52.41c0,0-0.288,0.328-0.474,0.529l4.954-27.774L24.958,25.761L24.958,25.761z M22.284,36.86L19.3,53.439
				c0,0-0.422,0.649-0.97,1.715c-0.442,0.867-0.77,1.633-0.77,1.633l-0.418-0.201c0,0,0.228-0.564,0.591-1.322
				c0.385-0.797,0.814-1.431,0.814-1.431s-0.247-0.22-0.571-0.454c-0.27-0.193-0.629-0.445-0.629-0.445L22.284,36.86L22.284,36.86z
				 M16.99,52.75c0,0-0.721-0.404-1.23-0.637c-0.484-0.223-1.203-0.453-1.203-0.453l7.989-24.772l1.209,1.594L22.4,35.408
				L16.99,52.75L16.99,52.75z M23.861,28.042l-1.87-2.564L20.98,28.43c0,0-3.901-3.566-3.901-8.833c0-5.266,1.742-9.546,4.857-12.07
				c-0.853,2.155-1.253,5.327-1.253,7.145c0,4.895,2.008,8.988,3.543,11.53L23.861,28.042L23.861,28.042z M22.04,26.229l0.266,0.352
				l-8.082,24.987c0,0-0.168-0.057-0.431-0.119L22.04,26.229L22.04,26.229z M39.361,55.061c0.246,0.467,0.535,1.268,0.535,1.268
				s-0.189,0.109-0.39,0.166c-0.125-0.428-0.198-0.695-0.672-1.525c-0.474-0.828-1.267-1.777-1.267-1.777l-2.234-12.417
				l4.141,11.814c0,0-0.261,0.193-0.545,0.396c-0.287,0.207-0.535,0.459-0.535,0.459S39.137,54.635,39.361,55.061L39.361,55.061z
				 M35.008,38.684l-0.525-2.744l5.713,16.226c0,0-0.215,0.141-0.37,0.218L35.008,38.684L35.008,38.684z M37.973,44.661
				c-1.127-3.238-3.736-10.273-3.736-10.273l-1.633-9.175c0,0,0.791,1.215,1.33,1.914c0.586,0.764,1.342,1.635,1.342,1.635
				l7.779,22.402c0,0-0.397,0.063-1.283,0.35c-0.844,0.272-1.188,0.467-1.188,0.467S39.1,47.9,37.973,44.661L37.973,44.661z
				 M35.508,28.247c0,0-1.884-1.665-3.58-4.857c0.307,1.745,0.801,4.608,0.801,4.608s-1.604-0.981-2.283-1.649
				c0.8-1.077,2.054-3.72,2.054-7.021c0-3.455-0.881-5.012-1.006-6.816c-0.12-1.787,1.698-4.266,3.692-5.542
				c-0.455,0.715-0.83,2.283-0.819,3.813c0.03,3.83,2.688,5.9,2.764,12.874C37.166,26.847,35.508,28.247,35.508,28.247
				L35.508,28.247z M31.479,27.608c0.533,0.353,1.277,0.818,1.277,0.818l4.32,24.27c0,0-0.672-0.75-1.688-1.434
				c-1.051-0.705-1.586-0.935-1.586-0.935l-3.398-17.829l-0.086-5.772C30.318,26.727,30.943,27.255,31.479,27.608L31.479,27.608z
				 M30.455,37.027l-0.049-2.619L33.331,50.1l-0.454-0.187L30.455,37.027L30.455,37.027z M32.415,49.742c0,0-0.405-0.15-0.876-0.264
				c-0.516-0.125-0.85-0.209-0.85-0.209l-0.201-10.067L32.415,49.742L32.415,49.742z M49.869,52.346c0,0-1.727-0.861-3.012-1.09
				c-1.668-0.295-3.459-0.093-3.459-0.093L35.6,28.779c1.002-0.912,2-2.31,1.941-6.015c-0.077-4.93-2.639-8.996-2.73-11.515
				c-0.107-2.912,0.774-4.327,1.5-5.339c-2.648,1.158-5.674,4.333-5.203,7.144c0.203,1.207,0.953,3.207,0.959,5.947
				c0.01,3.402-0.875,5.376-1.73,6.837c0,0-0.059-1.173-0.093-1.887c0.649-1.349,1.116-2.927,1.001-5.449
				C31,13.241,29.055,11.337,29.055,7.967c0-2.861,0.539-4.502,0.896-5.358c-2.414,0.59-7.364,5.755-7.364,13.732
				c0,3.654,1.882,8.313,1.882,8.313l-0.17,0.888c-0.291-0.686-3.156-5.066-3.156-10.579c0-5.029,1.336-7.703,1.798-8.882
				c-3.898,2.775-6.328,6.968-6.328,13.641c0,5.633,4.207,9.219,4.202,9.215l-7.292,22.444c0,0-1.297-0.374-3.506,0.063
				c-2.208,0.436-3.289,1.274-3.289,1.274L6.619,1.597l43.25,0.016V52.346L49.869,52.346z"/>
			<path id="Fill-2" sketch:type="MSShapeGroup" fill="#404042" d="M26.496,88.314h-1.491v-6.34h-0.021l-1.538,6.34h-1.565
				l-1.504-6.34h-0.022v6.34h-1.491v-7.629h2.332l1.495,5.979h0.022l1.474-5.979h2.31L26.496,88.314"/>
			<path id="Fill-3" sketch:type="MSShapeGroup" fill="#404042" d="M35.648,88.314h-1.49v-6.34h-0.021l-1.537,6.34h-1.565
				l-1.505-6.34h-0.021v6.34h-1.491v-7.629h2.332l1.496,5.979h0.021l1.474-5.979h2.311v7.629"/>
			<path id="Fill-5" sketch:type="MSShapeGroup" fill="#404042" d="M1.918,73.717v3.41H0.327v-7.605h1.591v2.883H4.89v-2.883h1.592
				v7.605H4.89v-3.41H1.918"/>
			<path id="Fill-18" sketch:type="MSShapeGroup" fill="#404042" d="M49.389,80.684h1.49v7.631h-1.597l-3.12-5.44h-0.021v5.44h-1.49
				v-7.631h1.683l3.034,5.314h0.021V80.684"/>
			<path id="Fill-7" sketch:type="MSShapeGroup" fill="#404042" d="M14.31,74.465c0,2.01-1.214,2.869-3.14,2.869
				c-0.703,0-1.747-0.17-2.428-0.925c-0.415-0.468-0.576-1.083-0.597-1.849v-5.059h1.628v4.95c0,1.063,0.619,1.53,1.363,1.53
				c1.096,0,1.545-0.529,1.545-1.455v-5.025h1.628L14.31,74.465"/>
			<path id="Fill-8" sketch:type="MSShapeGroup" fill="#404042" d="M15.806,69.502h3.375c2.576,0,3.108,2.189,3.108,3.635
				c0,1.637-0.649,3.994-3.172,3.994h-3.312L15.806,69.502L15.806,69.502z M17.372,75.814h1.554c1.299,0,1.735-1.31,1.735-2.562
				c0-2.254-1.075-2.435-1.756-2.435h-1.533V75.814L17.372,75.814z"/>
			<path id="Fill-9" sketch:type="MSShapeGroup" fill="#404042" d="M23.426,69.502h3.375c2.576,0,3.109,2.189,3.109,3.635
				c0,1.637-0.65,3.994-3.174,3.994h-3.311L23.426,69.502L23.426,69.502z M24.991,75.814h1.554c1.299,0,1.735-1.31,1.735-2.562
				c0-2.254-1.075-2.435-1.755-2.435h-1.533L24.991,75.814L24.991,75.814z"/>
			<path id="Fill-10" sketch:type="MSShapeGroup" fill="#404042" d="M38.665,69.503h1.489v7.628h-1.596l-3.119-5.439h-0.021v5.439
				h-1.49v-7.628h1.682l3.035,5.313h0.021L38.665,69.503"/>
			<path id="Fill-11" sketch:type="MSShapeGroup" fill="#404042" d="M45.691,73.02H48.4v4.111h-1.063l-0.16-0.955
				c-0.402,0.467-0.99,1.158-2.385,1.158c-1.842,0-3.514-1.318-3.514-3.996c0-2.082,1.16-4.047,3.736-4.035
				c2.11,0,3.116,1.006,3.348,1.969l-1.59,0.188c-0.277-0.445-0.881-0.839-1.672-0.839c-1.14,0-2.192,0.784-2.192,2.741
				c0,2.082,1.139,2.625,2.225,2.625c0.353,0,1.522-0.141,1.854-1.68h-1.297V73.02"/>
			<path id="Fill-13" sketch:type="MSShapeGroup" fill="#404042" d="M55.457,70.854h-4.059v1.731h3.555v1.351h-3.555v1.849h4.24
				v1.35h-5.804v-7.63h5.621L55.457,70.854"/>
			<path id="Fill-14" sketch:type="MSShapeGroup" fill="#404042" d="M5.257,88.313H3.662v-7.629h1.595v3.104l2.917-3.104h2.065
				L7.12,83.809l3.301,4.504H8.366l-2.363-3.347L5.257,85.73V88.313"/>
			<path id="Fill-15" sketch:type="MSShapeGroup" fill="#404042" d="M14.068,80.484c1.01,0,3.672,0.435,3.672,4.016
				c0,3.58-2.662,4.016-3.672,4.016c-1.011,0-3.673-0.436-3.673-4.016C10.395,80.919,13.057,80.484,14.068,80.484 M14.068,87.166
				c0.862,0,2.077-0.531,2.077-2.666s-1.214-2.668-2.077-2.668c-0.863,0-2.076,0.533-2.076,2.668S13.205,87.166,14.068,87.166"/>
			<path id="Fill-17" sketch:type="MSShapeGroup" fill="#404042" d="M43.229,85.648c0,2.006-1.215,2.865-3.141,2.865
				c-0.703,0-1.746-0.168-2.428-0.923c-0.416-0.467-0.575-1.084-0.596-1.849v-5.061h1.629v4.952c0,1.063,0.615,1.53,1.363,1.53
				c1.096,0,1.545-0.531,1.545-1.455v-5.027h1.625v4.967"/>
			<path id="Fill-19" sketch:type="MSShapeGroup" fill="#404042" d="M31.02,69.523h1.598v7.627H31.02V69.523z"/>
		</g>
	</g>
</g>
</svg>
